<svg xmlns="http://www.w3.org/2000/svg" viewBox="0 0 32 32"><path fill="#d7e2f2" d="M4.545 10.82v-.666a.463.463 0 0 0-.465-.465H2.257c-.553 0-1 .446-1 1s.446 1 1 1h2.936v-.874h-.648v.006zM27.455 10.82v-.666c0-.258.207-.465.465-.465h1.823c.553 0 1 .446 1 1s-.446 1-1 1h-2.936v-.874h.648v.006z" style="fill:var(--color2, #d7e2f2)"/><path fill="#333842" d="M2.395 20.049v6.155a.55.55 0 0 0 .553.553h2.546a.55.55 0 0 0 .553-.553v-6.155H2.394zM29.605 20.049v6.155a.55.55 0 0 1-.553.553h-2.546a.55.55 0 0 1-.553-.553v-6.155h3.653z" style="fill:var(--color3, #333842)"/><path fill="#becee7" d="m28.794 12.354-1.119-.56s-2.295-4.897-3.162-5.646c-.434-.371-4.47-.912-8.512-.912-4.036 0-8.079.541-8.512.912-.868.742-3.162 5.646-3.162 5.646l-1.119.56-1.301 2.483.773 8.311c.05.566.528.993 1.088.993h24.456c.566 0 1.037-.427 1.088-.993l.773-8.311-1.289-2.483z" style="fill:var(--color4, #becee7)"/><path fill="#8fa3c1" d="M3.546 14.617 2.395 17.22l5.212.289 1.345-2.094z" style="fill:var(--color5, #8fa3c1)"/><path fill="#f8b517" d="M3.546 14.617v2.666l-1.151-.063z" style="fill:var(--color6, #f8b517)"/><path fill="#fffffc" d="M5.847 16.038a1.056 1.056 0 1 1-2.113 0 1.056 1.056 0 0 1 2.113 0zM7.745 16.333a.849.849 0 1 1-1.698 0 .849.849 0 0 1 1.698 0z" style="fill:var(--color7, #fffffc)"/><path fill="#393d47" d="m7.871 21.105-.974 1.829H3.728l.484-1.169c.163-.402.56-.66.987-.66h2.672z" style="fill:var(--color8, #393d47)"/><path fill="#dededf" d="M6.048 22.048a.73.73 0 1 1-1.458 0 .73.73 0 0 1 1.458 0z" style="fill:var(--color9, #dededf)"/><path fill="#d7e2f2" d="M6.199 11.8s2.534.56 3.64 3.684l-1.232 2.653-.861-.629 1.207-2.087c0-.006-.409-1.817-2.754-3.621z" style="fill:var(--color2, #d7e2f2)"/><path fill="#d7e2f2" d="M8.607 18.131s-5.815.427-6.211 0c-.402-.427 0-.912 0-.912l5.35.289.861.622z" style="fill:var(--color2, #d7e2f2)"/><path fill="#8fa3c1" d="m28.454 14.617 1.151 2.603-5.212.289-1.345-2.094z" style="fill:var(--color5, #8fa3c1)"/><path fill="#f8b517" d="M28.454 14.617v2.666l1.151-.063z" style="fill:var(--color6, #f8b517)"/><path fill="#fffffc" d="M28.266 16.038a1.056 1.056 0 1 1-2.113 0 1.056 1.056 0 0 1 2.113 0zM25.952 16.333a.849.849 0 1 1-1.698 0 .849.849 0 0 1 1.698 0z" style="fill:var(--color7, #fffffc)"/><path fill="#393d47" d="m24.129 21.105.974 1.829h3.162l-.484-1.169a1.067 1.067 0 0 0-.987-.66h-2.666z" style="fill:var(--color8, #393d47)"/><path fill="#dededf" d="M27.411 22.048a.729.729 0 1 1-1.457.001.729.729 0 0 1 1.457-.001z" style="fill:var(--color9, #dededf)"/><path fill="#d7e2f2" d="M25.801 11.8s-2.534.56-3.64 3.684l1.232 2.653.861-.629-1.207-2.087c0-.006.409-1.817 2.754-3.621z" style="fill:var(--color2, #d7e2f2)"/><path fill="#393d47" d="M23.425 18.414c-.346-.956-1.201-2.798-1.679-2.936-.239-.069-2.993-.22-5.746-.22s-5.507.157-5.746.22c-.478.138-1.333 1.98-1.679 2.936s.509.943.509.943h13.837c0 .006.849.013.503-.943zM22.161 21.52H9.839s-.981.019-1.71 1.421h15.736c-.723-1.402-1.704-1.421-1.704-1.421zM23.506 23.475H8.493l-.295.66h15.604z" style="fill:var(--color8, #393d47)"/><path fill="#4485c5" d="M24.129 6.626c-.698-.226-4.413-.629-8.129-.629s-7.431.402-8.129.629c0 0-1.999 2.829-2.873 5.174h22.004c-.874-2.345-2.873-5.174-2.873-5.174z" style="fill:var(--color10, #4485c5)"/><path fill="#d7e2f2" d="M23.393 18.131s5.815.427 6.211 0c.402-.427 0-.912 0-.912l-5.35.289-.861.622z" style="fill:var(--color2, #d7e2f2)"/></svg>